<svg width="20" height="20" viewBox="0 0 20 20" fill="none" xmlns="http://www.w3.org/2000/svg">
<path d="M5.33335 16.3333C5.70154 16.3333 6.00002 16.0349 6.00002 15.6667C6.00002 15.2985 5.70154 15 5.33335 15C4.96516 15 4.66669 15.2985 4.66669 15.6667C4.66669 16.0349 4.96516 16.3333 5.33335 16.3333Z" fill="#83BCD9"/>
<path d="M14.6667 16.3333C15.0349 16.3333 15.3333 16.0349 15.3333 15.6667C15.3333 15.2985 15.0349 15 14.6667 15C14.2985 15 14 15.2985 14 15.6667C14 16.0349 14.2985 16.3333 14.6667 16.3333Z" fill="#83BCD9"/>
<path d="M17.6667 3H15V1.33333C15 1.14925 14.8508 1 14.6667 1C14.4826 1 14.3333 1.14925 14.3333 1.33333V3H5.66667V1.33333C5.66667 1.14925 5.51742 1 5.33333 1C5.14925 1 5 1.14925 5 1.33333V3H2.33333C1.04529 3.00146 0.00145833 4.04529 0 5.33333V16.6667C0.00145833 17.9547 1.04529 18.9985 2.33333 19H17.6667C18.9547 18.9985 19.9985 17.9547 20 16.6667V5.33333C19.9985 4.04529 18.9547 3.00146 17.6667 3ZM19.3333 16.6667C19.3323 17.5867 18.5867 18.3323 17.6667 18.3333H2.33333C1.41333 18.3323 0.66775 17.5867 0.666667 16.6667V8.33333H19.3333V16.6667ZM19.3333 7.66667H0.666667V5.33333C0.66775 4.41333 1.41333 3.66775 2.33333 3.66667H5V5.33333C5 5.51742 5.14925 5.66667 5.33333 5.66667C5.51742 5.66667 5.66667 5.51742 5.66667 5.33333V3.66667H14.3333V5.33333C14.3333 5.51742 14.4826 5.66667 14.6667 5.66667C14.8508 5.66667 15 5.51742 15 5.33333V3.66667H17.6667C18.5867 3.66775 19.3323 4.41333 19.3333 5.33333V7.66667Z" fill="#83BCD9"/>
<path d="M5.33335 11.6667C5.70154 11.6667 6.00002 11.3682 6.00002 11C6.00002 10.6318 5.70154 10.3333 5.33335 10.3333C4.96516 10.3333 4.66669 10.6318 4.66669 11C4.66669 11.3682 4.96516 11.6667 5.33335 11.6667Z" fill="#83BCD9"/>
<path d="M14.6667 11.6667C15.0349 11.6667 15.3333 11.3682 15.3333 11C15.3333 10.6318 15.0349 10.3333 14.6667 10.3333C14.2985 10.3333 14 10.6318 14 11C14 11.3682 14.2985 11.6667 14.6667 11.6667Z" fill="#83BCD9"/>
<path d="M9.99998 11.6667C10.3682 11.6667 10.6666 11.3682 10.6666 11C10.6666 10.6318 10.3682 10.3333 9.99998 10.3333C9.63179 10.3333 9.33331 10.6318 9.33331 11C9.33331 11.3682 9.63179 11.6667 9.99998 11.6667Z" fill="#83BCD9"/>
<path d="M9.99998 16.3333C10.3682 16.3333 10.6666 16.0349 10.6666 15.6667C10.6666 15.2985 10.3682 15 9.99998 15C9.63179 15 9.33331 15.2985 9.33331 15.6667C9.33331 16.0349 9.63179 16.3333 9.99998 16.3333Z" fill="#83BCD9"/>
</svg>
