<svg width="38" height="26" viewBox="0 0 38 26" fill="none" xmlns="http://www.w3.org/2000/svg">
<path d="M-9.44853e-07 3.41313L-1.49188e-07 21.6158C-6.69341e-08 23.4976 1.96718 25.0289 4.3846 25.0289L33.6152 25.0289C36.0327 25.0289 37.9998 23.4976 37.9998 21.6158L37.9998 3.41302C37.9998 1.53128 36.0327 2.23966e-06 33.6152 2.34533e-06L4.3846 3.62304e-06C1.96718 0.00011054 -1.02711e-06 1.53138 -9.44853e-07 3.41313ZM33.6152 2.27542C34.422 2.27542 35.0768 2.78513 35.0768 3.41313L35.0768 21.6158C35.0768 22.2438 34.422 22.7535 33.6152 22.7535L4.3846 22.7535C3.57784 22.7535 2.92302 22.2438 2.92302 21.6158L2.92302 3.41302C2.92302 2.78503 3.57784 2.27532 4.3846 2.27532L33.6152 2.27531L33.6152 2.27542Z" fill="white"/>
<path d="M17.5385 1.13771L17.5385 23.8913C17.5385 24.5192 18.1933 25.029 19 25.029C19.8068 25.029 20.4615 24.5192 20.4615 23.8913L20.4615 1.13782C20.4615 0.509827 19.8067 0.000110527 18.9999 0.000110562C18.1931 0.000110598 17.5385 0.509718 17.5385 1.13771Z" fill="white"/>
<path d="M-4.97308e-08 17.0652C-2.22802e-08 17.6932 0.654812 18.2029 1.46158 18.2029L10.2308 18.2029C11.0376 18.2029 11.6924 17.6932 11.6924 17.0652C11.6924 16.4372 11.0374 15.9275 10.2306 15.9275L1.46144 15.9275C0.654674 15.9275 -7.71814e-08 16.4372 -4.97308e-08 17.0652Z" fill="white"/>
<path d="M8.76916 12.5145C8.76917 13.1425 9.42398 13.6522 10.2307 13.6522L19 13.6522C19.8067 13.6522 20.4615 13.1425 20.4615 12.5145C20.4615 11.8865 19.8067 11.3768 19 11.3768L10.2307 11.3768C9.42384 11.3768 8.76916 11.8865 8.76916 12.5145Z" fill="white"/>
<path d="M-4.97308e-08 7.96375C-2.22802e-08 8.59174 0.654812 9.10146 1.46158 9.10146L10.2308 9.10146C11.0376 9.10146 11.6924 8.59174 11.6924 7.96375C11.6924 7.33575 11.0376 6.82604 10.2308 6.82604L1.46158 6.82604C0.654675 6.82614 -7.71814e-08 7.33575 -4.97308e-08 7.96375Z" fill="white"/>
<path d="M26.3076 12.5145C26.3076 13.1425 26.9624 13.6522 27.7692 13.6522L36.5384 13.6522C37.3452 13.6522 38 13.1425 38 12.5145C38 11.8865 37.3452 11.3768 36.5384 11.3768L27.7692 11.3768C26.9623 11.3768 26.3076 11.8865 26.3076 12.5145Z" fill="white"/>
<path d="M17.5385 17.0652C17.5385 17.6932 18.1933 18.2029 19 18.2029L27.7692 18.2029C28.576 18.2029 29.2308 17.6932 29.2308 17.0652C29.2308 16.4372 28.5759 15.9275 27.7691 15.9275L18.9999 15.9275C18.1931 15.9275 17.5385 16.4372 17.5385 17.0652Z" fill="white"/>
<path d="M17.5385 7.96375C17.5385 8.59174 18.1933 9.10146 19 9.10146L27.7692 9.10146C28.576 9.10146 29.2308 8.59174 29.2308 7.96375C29.2308 7.33575 28.576 6.82604 27.7692 6.82604L19 6.82604C18.1931 6.82614 17.5385 7.33575 17.5385 7.96375Z" fill="white"/>
</svg>
