<svg width="20" height="20" viewBox="0 0 20 20" fill="none" xmlns="http://www.w3.org/2000/svg">
<path d="M19.0361 2.89157H0.963867C0.433711 2.89157 0 3.32528 0 3.8554V16.1446C0 16.6747 0.433711 17.1084 0.963867 17.1084H19.0361C19.5662 17.1084 20 16.6747 20 16.1446V3.8554C20 3.32528 19.5663 2.89157 19.0361 2.89157ZM0.722891 3.8554C0.722891 3.72481 0.833242 3.61446 0.963828 3.61446H19.0361C19.1667 3.61446 19.277 3.72481 19.277 3.8554V5.0602H0.722891V3.8554ZM19.2771 16.1446C19.2771 16.2752 19.1668 16.3855 19.0361 16.3855H0.963867C0.833281 16.3855 0.72293 16.2752 0.72293 16.1446V8.6747H19.2771V16.1446ZM19.2771 7.95181H0.722891V5.78313H19.2771V7.95181H19.2771Z" fill="#5DC7BD"/>
<path d="M16.265 11.0843C15.7005 11.0843 15.1896 11.3127 14.8193 11.6819C14.4487 11.3127 13.9378 11.0843 13.3735 11.0843C12.2422 11.0843 11.3253 12.0014 11.3253 13.1325C11.3253 14.2633 12.2422 15.1806 13.3735 15.1806C13.9378 15.1806 14.4487 14.9522 14.8193 14.583C15.1897 14.9522 15.7005 15.1806 16.265 15.1806C17.3959 15.1806 18.3132 14.2633 18.3132 13.1325C18.3133 12.0014 17.3959 11.0843 16.265 11.0843ZM16.265 14.4578C15.912 14.4578 15.5798 14.3205 15.3296 14.0711C15.1884 13.9305 15.0038 13.8602 14.8193 13.8602C14.6347 13.8602 14.4501 13.9305 14.3091 14.0711C14.0588 14.3205 13.7262 14.4578 13.3734 14.4578C12.6426 14.4578 12.0481 13.8634 12.0481 13.1325C12.0481 12.4016 12.6426 11.8072 13.3734 11.8072C13.7262 11.8072 14.0587 11.9445 14.3091 12.1939C14.4501 12.3346 14.6349 12.4048 14.8193 12.4048C15.0041 12.4048 15.1884 12.3345 15.3296 12.1939C15.5797 11.9445 15.912 11.8072 16.265 11.8072C16.9959 11.8072 17.5904 12.4016 17.5904 13.1325C17.5904 13.8634 16.9959 14.4578 16.265 14.4578Z" fill="#5DC7BD"/>
<path d="M7.95176 11.8072H2.16864C1.9691 11.8072 1.80719 11.9692 1.80719 12.1687C1.80719 12.3682 1.96914 12.5301 2.16864 12.5301H7.95176C8.15129 12.5301 8.3132 12.3682 8.3132 12.1687C8.3132 11.9691 8.15129 11.8072 7.95176 11.8072Z" fill="#5DC7BD"/>
<path d="M4.81969 13.4939H2.16864C1.9691 13.4939 1.80719 13.6559 1.80719 13.8554C1.80719 14.0549 1.96914 14.2168 2.16864 14.2168H4.81973C5.01926 14.2168 5.18118 14.0549 5.18118 13.8554C5.18118 13.6559 5.01922 13.4939 4.81969 13.4939Z" fill="#5DC7BD"/>
</svg>
