<svg width="20" height="20" viewBox="0 0 20 20" fill="none" xmlns="http://www.w3.org/2000/svg">
<g clip-path="url(#clip0)">
<path d="M18.1199 6.52676C18.1195 6.52257 18.1187 6.5185 18.1181 6.51435C18.1173 6.50903 18.1167 6.50367 18.1156 6.49835C18.1147 6.49353 18.1134 6.48884 18.1122 6.4841C18.111 6.47956 18.11 6.47502 18.1087 6.47052C18.1073 6.46586 18.1055 6.46136 18.1039 6.45678C18.1023 6.45232 18.1008 6.44782 18.099 6.4434C18.0972 6.43913 18.0951 6.43502 18.0931 6.43083C18.091 6.42633 18.089 6.42179 18.0867 6.41741C18.0845 6.41338 18.0821 6.4095 18.0797 6.40559C18.0772 6.40132 18.0747 6.39698 18.0719 6.39279C18.069 6.38844 18.0658 6.38437 18.0627 6.38019C18.06 6.3767 18.0576 6.3731 18.0548 6.3697C18.049 6.36265 18.0429 6.35588 18.0365 6.34938C18.0361 6.34899 18.0358 6.34856 18.0354 6.34817L11.7731 0.085949C11.7727 0.0855185 11.7722 0.0851271 11.7718 0.0846965C11.7654 0.078356 11.7587 0.0722504 11.7517 0.066497C11.7483 0.0637181 11.7447 0.0612915 11.7412 0.0587083C11.7371 0.0555772 11.7329 0.0523287 11.7286 0.0493933C11.7245 0.0466535 11.7203 0.0443052 11.7162 0.0418395C11.7121 0.0394129 11.7081 0.0368688 11.7039 0.0345988C11.6998 0.0323679 11.6955 0.0305283 11.6913 0.0285322C11.6868 0.0264187 11.6824 0.0241878 11.6778 0.0223092C11.6738 0.0206653 11.6697 0.0193346 11.6656 0.0178473C11.6606 0.0160469 11.6557 0.0141683 11.6507 0.0126419C11.6467 0.0114286 11.6427 0.0105675 11.6387 0.00954989C11.6334 0.00818003 11.6282 0.00673189 11.6228 0.00567514C11.6184 0.00481408 11.614 0.00434442 11.6096 0.00367906C11.6045 0.00289628 11.5995 0.00199608 11.5944 0.00148728C11.5871 0.000782778 11.5798 0.000547944 11.5726 0.000391389C11.5702 0.000313111 11.5679 0 11.5655 0H3.28324C2.50876 0 1.87866 0.630097 1.87866 1.40458V16.0905C1.87866 16.8162 2.43177 17.415 3.13854 17.4877C3.20629 18.1469 3.73181 18.6723 4.39099 18.7401C4.46363 19.4469 5.0625 20 5.78813 20H16.7167C17.4912 20 18.1213 19.3699 18.1213 18.5954V6.55588C18.1213 6.54613 18.1208 6.53643 18.1199 6.52676ZM14.364 3.50712L17.1191 6.26222H15.1815C14.7307 6.26222 14.364 5.89549 14.364 5.44473V3.50712ZM2.46575 16.0905V1.40458C2.46575 0.953815 2.83248 0.587083 3.28324 0.587083H11.4439L12.1093 1.25244H4.53569C3.76121 1.25244 3.13111 1.88254 3.13111 2.65702V16.8933C2.75287 16.8217 2.46575 16.4892 2.46575 16.0905ZM3.71819 17.3429V2.65702C3.71819 2.20626 4.08492 1.83953 4.53569 1.83953H12.6964L13.3618 2.50489H5.78813C5.01365 2.50489 4.38355 3.13499 4.38355 3.90947V18.1457C4.00532 18.0741 3.71819 17.7417 3.71819 17.3429ZM16.7167 19.4129H5.78813C5.33737 19.4129 4.97064 19.0462 4.97064 18.5954V3.90947C4.97064 3.4587 5.33737 3.09197 5.78813 3.09197H13.7769V5.44473C13.7769 6.21921 14.407 6.8493 15.1815 6.8493H17.5342V18.5954C17.5342 19.0462 17.1675 19.4129 16.7167 19.4129Z" fill="#C99AD3"/>
</g>
<defs>
<clipPath id="clip0">
<rect width="20" height="20" fill="white"/>
</clipPath>
</defs>
</svg>
