<svg width="20" height="19" viewBox="0 0 20 19" fill="none" xmlns="http://www.w3.org/2000/svg">
<path d="M18.2161 1.78707C17.0637 0.634648 15.5315 0 13.9017 0C12.4603 0 11.0951 0.496445 10.0016 1.4084C8.90805 0.496445 7.54289 0 6.10152 0C4.47176 0 2.93953 0.634688 1.78711 1.78707C0.634687 2.93945 0 4.47176 0 6.10148C0 7.73121 0.634687 9.26352 1.78711 10.4159C1.78844 10.4173 1.7898 10.4186 1.79117 10.42L9.58723 18.216C9.69711 18.3259 9.84617 18.3877 10.0016 18.3877C10.157 18.3877 10.3061 18.326 10.416 18.216L18.2107 10.4213C18.2125 10.4195 18.2143 10.4177 18.2162 10.4159C18.2181 10.414 18.22 10.412 18.2219 10.4101C20.5947 8.03074 20.5926 4.16344 18.2161 1.78707ZM17.3893 9.5852C17.3886 9.58582 17.388 9.58648 17.3873 9.58723C17.387 9.58754 17.3866 9.58785 17.3863 9.58816L10.0016 16.9729L2.61691 9.5882C2.61598 9.58727 2.61496 9.58625 2.61383 9.58516C1.68406 8.65434 1.17207 7.41727 1.17207 6.10152C1.17207 4.7848 1.6848 3.54691 2.6159 2.61586C3.54695 1.6848 4.78484 1.17207 6.10152 1.17207C7.41824 1.17207 8.65613 1.6848 9.58719 2.61586C9.81606 2.84469 10.1871 2.84469 10.4159 2.61586C11.347 1.6848 12.5849 1.17207 13.9016 1.17207C15.2183 1.17207 16.4562 1.6848 17.3872 2.61586C19.3082 4.53668 19.3091 7.66313 17.3893 9.5852Z" fill="#A278F4"/>
</svg>
