<svg width="20" height="20" viewBox="0 0 20 20" fill="none" xmlns="http://www.w3.org/2000/svg">
<path d="M13.125 5.9341V4.5227L14.9341 0.904531C15.0309 0.710742 15.0205 0.480625 14.9066 0.296328C14.7928 0.112305 14.5917 0 14.375 0H11.875C11.7093 0 11.5503 0.0659375 11.4331 0.183125L10.625 0.991211L9.81691 0.183125C9.69973 0.0659375 9.54074 0 9.375 0H5.625C5.40832 0 5.20723 0.112305 5.0934 0.296328C4.97957 0.480664 4.96918 0.710742 5.06594 0.904531L6.875 4.5227V5.9341C4.09469 7.97957 1.875 12.0973 1.875 15.2987C1.875 20 6.00555 20 10 20C13.9945 20 18.125 20 18.125 15.2987C18.125 12.0973 15.9053 7.97957 13.125 5.9341ZM8.125 5H11.875V5.625H8.125V5ZM9.11621 1.25L10.1831 2.31691C10.4273 2.56105 10.8228 2.56105 11.0669 2.31691L12.1338 1.25H13.3636L12.1136 3.75H7.88637L6.63637 1.25H9.11621ZM10 18.75C5.11473 18.75 3.125 18.4378 3.125 15.2987C3.125 12.7701 4.95484 8.82812 7.69562 6.875H12.3044C15.0452 8.82812 16.875 12.7701 16.875 15.2987C16.875 18.4378 14.8853 18.75 10 18.75Z" fill="#8592D8"/>
</svg>
