<svg width="20" height="20" viewBox="0 0 20 20" fill="none" xmlns="http://www.w3.org/2000/svg">
<path d="M18.75 15.625C18.75 17.3509 17.3509 18.75 15.625 18.75H4.375C2.6491 18.75 1.25 17.3509 1.25 15.625V4.375C1.25 2.6491 2.6491 1.25 4.375 1.25H10.625V0H4.375C1.95875 0 0 1.95875 0 4.375V15.625C0 18.0413 1.95875 20 4.375 20H15.625C18.0413 20 20 18.0413 20 15.625V9.375H18.75V15.625Z" fill="#EA9DBD"/>
<path d="M15.625 8.75C18.0412 8.75 20 6.79125 20 4.375C20 1.95875 18.0412 0 15.625 0C13.2088 0 11.25 1.95875 11.25 4.375C11.25 6.79125 13.2088 8.75 15.625 8.75ZM15.625 1.25C17.3509 1.25 18.75 2.6491 18.75 4.375C18.75 6.1009 17.3509 7.5 15.625 7.5C13.8991 7.5 12.5 6.1009 12.5 4.375C12.5 2.6491 13.8991 1.25 15.625 1.25Z" fill="#EA9DBD"/>
</svg>
